name E:\Dropbox\SEL\BOX\Experiment\240124_SUB1_PJH\c3d\XYZ\UpDown_TrcMot\15_10_trial1_D1_ExtLoadAPP3.mot
datacolumns 37
datarows 9
range 9.353 9.361
endheader

time	    ground_force1_vx	    ground_force1_vy	    ground_force1_vz	    ground_force1_px	    ground_force1_py	    ground_force1_pz	    ground_torque1_x	    ground_torque1_y	    ground_torque1_z	    ground_force2_vx	    ground_force2_vy	    ground_force2_vz	    ground_force2_px	    ground_force2_py	    ground_force2_pz	    ground_torque2_x	    ground_torque2_y	    ground_torque2_z	      hand_force3_vx	      hand_force3_vy	      hand_force3_vz	      hand_force3_px	      hand_force3_py	      hand_force3_pz	      hand_torque3_x	      hand_torque3_y	      hand_torque3_z	      hand_force4_vx	      hand_force4_vy	      hand_force4_vz	      hand_force4_px	      hand_force4_py	      hand_force4_pz	      hand_torque4_x	      hand_torque4_y	      hand_torque4_z	
9.353	         52.83955227	        470.60745196	        -11.40043899	          0.22291799	          0.00000000	          0.27553772	          0.00000000	         -6.62826634	          0.00000000	        -45.77331049	        455.50804037	        -18.12951406	          0.57939189	          0.00000000	          0.25792572	          0.00000000	          3.35521359	          0.00000000	          0.00000000	          0.00000000	          0.00000000	          0.14490726	          0.53586921	          0.00120519	          0.00000000	          0.00000000	          0.00000000	          0.00000000	          0.00000000	          0.00000000	          0.65633643	          0.53999806	          0.00277356	          0.00000000	          0.00000000	          0.00000000	
9.354	         52.90710872	        471.09060638	        -11.28189843	          0.22289422	          0.00000000	          0.27542767	          0.00000000	         -6.63987557	          0.00000000	        -45.82924292	        455.95996235	        -18.24332019	          0.57940362	          0.00000000	          0.25790265	          0.00000000	          3.36269998	          0.00000000	          0.00000000	          0.00000000	          0.00000000	          0.14508437	          0.53512989	          0.00094140	          0.00000000	          0.00000000	          0.00000000	          0.00000000	          0.00000000	          0.00000000	          0.65632556	          0.53936774	          0.00256563	          0.00000000	          0.00000000	          0.00000000	
9.355	         52.97426904	        471.57787485	        -11.16069788	          0.22287051	          0.00000000	          0.27531651	          0.00000000	         -6.65155309	          0.00000000	        -45.88535255	        456.42268993	        -18.35272883	          0.57941506	          0.00000000	          0.25787941	          0.00000000	          3.37010691	          0.00000000	          0.00000000	          0.00000000	          0.00000000	          0.14526135	          0.53439196	          0.00067714	          0.00000000	          0.00000000	          0.00000000	          0.00000000	          0.00000000	          0.00000000	          0.65631460	          0.53874042	          0.00235680	          0.00000000	          0.00000000	          0.00000000	
9.356	         53.04099790	        472.06902607	        -11.03705466	          0.22284687	          0.00000000	          0.27520428	          0.00000000	         -6.66328804	          0.00000000	        -45.94153795	        456.89591360	        -18.45769395	          0.57942620	          0.00000000	          0.25785595	          0.00000000	          3.37743504	          0.00000000	          0.00000000	          0.00000000	          0.00000000	          0.14543779	          0.53365557	          0.00041245	          0.00000000	          0.00000000	          0.00000000	          0.00000000	          0.00000000	          0.00000000	          0.65630357	          0.53811610	          0.00214709	          0.00000000	          0.00000000	          0.00000000	
9.357	         53.10725161	        472.56378221	        -10.91119830	          0.22282330	          0.00000000	          0.27509102	          0.00000000	         -6.67506940	          0.00000000	        -45.99770062	        457.37930842	        -18.55818120	          0.57943704	          0.00000000	          0.25783220	          0.00000000	          3.38468492	          0.00000000	          0.00000000	          0.00000000	          0.00000000	          0.14561325	          0.53292093	          0.00014739	          0.00000000	          0.00000000	          0.00000000	          0.00000000	          0.00000000	          0.00000000	          0.65629247	          0.53749477	          0.00193652	          0.00000000	          0.00000000	          0.00000000	
9.358	         53.17297802	        473.06181863	        -10.78336980	          0.22279981	          0.00000000	          0.27497678	          0.00000000	         -6.68688594	          0.00000000	        -46.05374528	        457.87253519	        -18.65416803	          0.57944755	          0.00000000	          0.25780811	          0.00000000	          3.39185696	          0.00000000	          0.00000000	          0.00000000	          0.00000000	          0.14578728	          0.53218822	         -0.00011799	          0.00000000	          0.00000000	          0.00000000	          0.00000000	          0.00000000	          0.00000000	          0.65628134	          0.53687641	          0.00172511	          0.00000000	          0.00000000	          0.00000000	
9.359	         53.23811664	        473.56276388	        -10.65382074	          0.22277640	          0.00000000	          0.27486159	          0.00000000	         -6.69872632	          0.00000000	        -46.10958023	        458.37524159	        -18.74564372	          0.57945775	          0.00000000	          0.25778361	          0.00000000	          3.39895144	          0.00000000	          0.00000000	          0.00000000	          0.00000000	          0.14595944	          0.53145765	         -0.00038363	          0.00000000	          0.00000000	          0.00000000	          0.00000000	          0.00000000	          0.00000000	          0.65627018	          0.53626104	          0.00151288	          0.00000000	          0.00000000	          0.00000000	
9.36	         53.30259866	        474.06620007	        -10.52281240	          0.22275309	          0.00000000	          0.27474549	          0.00000000	         -6.71057907	          0.00000000	        -46.16511752	        458.88706330	        -18.83260943	          0.57946761	          0.00000000	          0.25775865	          0.00000000	          3.40596847	          0.00000000	          0.00000000	          0.00000000	          0.00000000	          0.14612928	          0.53072942	         -0.00064948	          0.00000000	          0.00000000	          0.00000000	          0.00000000	          0.00000000	          0.00000000	          0.65625900	          0.53564863	          0.00129985	          0.00000000	          0.00000000	          0.00000000	
9.361	         53.36634720	        474.57166347	        -10.39061479	          0.22272988	          0.00000000	          0.27462851	          0.00000000	         -6.72243263	          0.00000000	        -46.22027327	        459.40762493	        -18.91507819	          0.57947713	          0.00000000	          0.25773317	          0.00000000	          3.41290803	          0.00000000	          0.00000000	          0.00000000	          0.00000000	          0.14629636	          0.53000374	         -0.00091547	          0.00000000	          0.00000000	          0.00000000	          0.00000000	          0.00000000	          0.00000000	          0.65624783	          0.53503919	          0.00108604	          0.00000000	          0.00000000	          0.00000000	
